<?xml version="1.0" encoding="iso-8859-1"?>
<!-- Generator: Adobe Illustrator 16.0.2, SVG Export Plug-In . SVG Version: 6.00 Build 0)  -->
<!DOCTYPE svg PUBLIC "-//W3C//DTD SVG 1.1//EN" "http://www.w3.org/Graphics/SVG/1.1/DTD/svg11.dtd">
<svg version="1.1" id="co_x5F_user" xmlns="http://www.w3.org/2000/svg" xmlns:xlink="http://www.w3.org/1999/xlink" x="0px"
	 y="0px" width="40px" height="40px" viewBox="0 0 40 40" style="enable-background:new 0 0 40 40;" xml:space="preserve">
<path style="fill-rule:evenodd;clip-rule:evenodd;" d="M35.527,33h-2.519v2.52c0,1.091-0.89,1.979-1.98,1.979h-0.04
	c-1.09,0-1.979-0.889-1.979-1.979V33h-2.52c-1.09,0-1.979-0.89-1.979-1.979v-0.04c0-1.091,0.889-1.979,1.979-1.979h2.52v-2.52
	c0-1.09,0.889-1.979,1.979-1.979h0.04c1.09,0,1.98,0.89,1.98,1.979v2.52h2.519c1.09,0,1.98,0.889,1.98,1.979v0.04
	C37.507,32.11,36.618,33,35.527,33z M27,26.001v1h-1c-1.858,0-3.407,1.273-3.856,2.991H6.724c-1.472,0-2.733-0.79-3.376-2.114
	c-0.643-1.326-0.483-2.806,0.428-3.962c0.47-0.597,1.073-1.103,1.79-1.488l7.196-3.875c2.702,1.601,5.98,1.603,8.685-0.001
	c0,0,5.241,2.977,7.363,4.003c0.03,0.018,0.054,0.04,0.083,0.059C27.76,23.319,27,24.567,27,26.001z M22.392,15.591
	c-2.7,3.023-7.416,3.54-10.576-0.002c-2.982-3.342-2.98-8.794,0.001-12.135c2.931-3.281,7.644-3.281,10.574,0l-0.002,0.001
	C25.363,6.788,25.377,12.245,22.392,15.591z"/>
</svg>
