<?xml version="1.0" encoding="iso-8859-1"?>
<!-- Generator: Adobe Illustrator 16.0.2, SVG Export Plug-In . SVG Version: 6.00 Build 0)  -->
<!DOCTYPE svg PUBLIC "-//W3C//DTD SVG 1.1//EN" "http://www.w3.org/Graphics/SVG/1.1/DTD/svg11.dtd">
<svg version="1.1" id="co_x5F_work" xmlns="http://www.w3.org/2000/svg" xmlns:xlink="http://www.w3.org/1999/xlink" x="0px"
	 y="0px" width="40px" height="40px" viewBox="0 0 40 40" style="enable-background:new 0 0 40 40;" xml:space="preserve">
<path style="fill-rule:evenodd;clip-rule:evenodd;" d="M32.606,34.988H7.413c-2.424,0-4.399-1.977-4.399-4.4v-8.598h14.987
	C18.001,21.994,18,21.997,18,22v3c0,1.105,0.896,2,2,2s2-0.895,2-2v-3c0-0.003-0.001-0.006-0.001-0.009h15.007v8.598
	C37.006,33.011,35.029,34.988,32.606,34.988z M3.014,14.393c0-2.423,1.976-4.4,4.399-4.4h6.598V6.194c0-1.212,0.988-2.2,2.2-2.2
	h7.598c1.212,0,2.199,0.988,2.199,2.2v3.799h6.599c2.423,0,4.399,1.977,4.399,4.4v5.598H3.014V14.393z M17.011,9.993h5.998v-3
	h-5.998V9.993z"/>
</svg>
