<?xml version="1.0" encoding="iso-8859-1"?>
<!-- Generator: Adobe Illustrator 17.1.0, SVG Export Plug-In . SVG Version: 6.00 Build 0)  -->
<!DOCTYPE svg PUBLIC "-//W3C//DTD SVG 1.1//EN" "http://www.w3.org/Graphics/SVG/1.1/DTD/svg11.dtd">
<svg version="1.1" xmlns="http://www.w3.org/2000/svg" xmlns:xlink="http://www.w3.org/1999/xlink" x="0px" y="0px" width="40px"
	 height="40px" viewBox="0 0 40 40" style="enable-background:new 0 0 40 40;" xml:space="preserve">
<g id="co_x5F_holiday">
	<g>
		<path d="M22.51,35.217c-0.506,0.047-1.143,0.083-1.91,0.083c-1.6,0-3.55-0.3-3.55-0.3c0.245,1.694,1.688,3,3.45,3
			c1.131,0,2.13-0.538,2.766-1.371C23.731,36.019,23.274,35.146,22.51,35.217z"/>
		<path d="M30.03,28c0,0-10.28,0.992-15.03,0c5.036-0.212,9.325-0.956,12.882-1.979C28.6,25.814,29.138,25.235,29,24.5l-0.723-3.689
			C27.537,16.862,24.088,14,20.07,14h-0.14c-4.018,0-7.467,2.862-8.207,6.811l-1.28,6.824C10.404,27.847,10.219,28,10.004,28H9.97
			C8.33,28,7,29.33,7,30.97v0.06c0,1.64,2.373,1.76,4,1.97c4.75,0.614,6.221,0.609,9,0.613c2.861,0.004,4.562,0,9-0.613
			c1.625-0.224,4-0.33,4-1.97v-0.06C33,29.33,31.67,28,30.03,28z"/>
		<path d="M30.702,2.286c-1.504,0-3.028,0.642-4.122,2.077l-3.168,4.158C23.2,8.8,22.758,8.799,22.583,8.496
			C22.066,7.603,21.107,7,20,7s-2.066,0.603-2.583,1.496C17.242,8.799,16.8,8.8,16.588,8.522L13.42,4.364
			c-1.094-1.436-2.618-2.077-4.122-2.077C6.617,2.287,4,4.326,4,7.543v0.21C4,10.651,6.349,13,9.247,13H13
			c2,0,2.942-1.024,3.478-1.653C16.656,11.137,17,11.262,17,11.537V12.8c0,0,1.083,0.5,3,0.5c2,0,3-0.5,3-0.5v-1.3
			c0-0.275,0.345-0.4,0.523-0.19C24.136,12.031,25,13,27,13h3.753C33.651,13,36,10.651,36,7.753v-0.21
			C36,4.326,33.383,2.286,30.702,2.286z M11.85,9.5H9.247C8.282,9.5,7.5,8.718,7.5,7.753v-0.21c0-1.289,1.076-1.757,1.799-1.757
			c0.534,0,0.984,0.235,1.337,0.698l1.641,2.154C12.546,8.992,12.294,9.5,11.85,9.5z M32.5,7.753c0,0.965-0.782,1.747-1.747,1.747
			h-2.604c-0.444,0-0.695-0.508-0.426-0.861l1.641-2.154c0.353-0.463,0.803-0.698,1.338-0.698c0.723,0,1.798,0.468,1.798,1.757
			V7.753z"/>
	</g>
</g>
<g id="GRID" style="display:none;">
	<g style="display:inline;">
		<rect x="-40" y="-40" style="fill-rule:evenodd;clip-rule:evenodd;fill:#BBBDBF;" width="40" height="40"/>
		<rect x="-40" y="0" style="fill-rule:evenodd;clip-rule:evenodd;fill:#BBBDBF;" width="40" height="40"/>
		<rect y="-40" style="fill-rule:evenodd;clip-rule:evenodd;fill:#BBBDBF;" width="40" height="40"/>
		<rect y="0" style="fill-rule:evenodd;clip-rule:evenodd;fill:#BBBDBF;" width="40" height="40"/>
		<rect x="40" y="-40" style="fill-rule:evenodd;clip-rule:evenodd;fill:#BBBDBF;" width="40" height="40"/>
		<rect x="40" y="0" style="fill-rule:evenodd;clip-rule:evenodd;fill:#BBBDBF;" width="40" height="40"/>
	</g>
</g>
</svg>
