<svg xmlns="http://www.w3.org/2000/svg" width="128" height="128" viewBox="0 0 128 128">
  <title>Burning Candles</title>
  <polygon points="27 64 27 46 13 42 13 64 27 64" style="fill: #d6eef2"/>
  <polygon points="117 64 117 46 103 42 103 64 117 64" style="fill: #d6eef2"/>
  <polygon points="72 49 72 31 58 27 58 49 72 49" style="fill: #d6eef2"/>
  <polygon points="123 64 97 64 97 72 101 72 101 84 119 84 119 72 123 72 123 64" style="fill: #707782"/>
  <polygon points="33 64 7 64 7 72 11 72 11 84 29 84 29 72 33 72 33 64" style="fill: #707782"/>
  <path d="M74,73H56a6,6,0,0,0-5.19,3H69a3,3,0,0,1,3,3v4a3,3,0,0,1-3,3H50.81A6,6,0,0,0,56,89H74a6,6,0,0,0,6-6V79A6,6,0,0,0,74,73Z" style="fill: #eff8ff"/>
  <path d="M68,79v4a3,3,0,0,1-3,3h4a3,3,0,0,0,3-3V79a3,3,0,0,0-3-3H65A3,3,0,0,1,68,79Z" style="fill: #b0b8c0"/>
  <path d="M50.8,86v0H51Z" style="fill: #707782"/>
  <path d="M51,76h-.19v0Z" style="fill: #707782"/>
  <path d="M50,79v4a6,6,0,0,0,.8,3l.2,0H65a3,3,0,0,0,3-3V79a3,3,0,0,0-3-3H51l-.2,0A6,6,0,0,0,50,79Z" style="fill: #707782"/>
  <path d="M86,121v4H44v-4a6,6,0,0,1,6-6H80A6,6,0,0,1,86,121Z" style="fill: #eff8ff"/>
  <path d="M72,121v4H44v-4a6,6,0,0,1,6-6H66A6,6,0,0,1,72,121Z" style="fill: #b0b8c0"/>
  <path d="M68,121v4H44v-4a6,6,0,0,1,6-6H62A6,6,0,0,1,68,121Z" style="fill: #707782"/>
  <circle cx="65" cy="102" r="13" style="fill: #707782"/>
  <path d="M78,102A13,13,0,1,1,65,89,13,13,0,0,1,78,102Z" style="fill: #eff8ff"/>
  <path d="M60,112a10,10,0,1,1,10-10A10,10,0,0,1,60,112Z" style="fill: #b0b8c0"/>
  <path d="M72,102a13,13,0,0,1-10,12.65,13,13,0,0,1,0-25.3A13,13,0,0,1,72,102Z" style="fill: #b0b8c0"/>
  <path d="M69,102a13,13,0,0,1-8.5,12.2,13,13,0,0,1,0-24.4A13,13,0,0,1,69,102Z" style="fill: #707782"/>
  <rect x="7" y="64" width="26" height="8" style="fill: #b0b8c0"/>
  <path d="M20,37l1.91-1.49S30,29.2,20,19c-10,10.2-1.91,16.51-1.91,16.51l1.6,1.25" style="fill: #ffbb7d"/>
  <path d="M110,37l1.91-1.49S120,29.2,110,19c-10,10.2-1.91,16.51-1.91,16.51l1.6,1.25" style="fill: #ffbb7d"/>
  <path d="M65,22l1.91-1.49S75,14.2,65,4c-10,10.2-1.91,16.51-1.91,16.51l1.6,1.25" style="fill: #ffbb7d"/>
  <polygon points="78 49 52 49 52 57 56 57 56 73 74 73 74 57 78 57 78 49" style="fill: #707782"/>
  <path d="M27,64v6a2,2,0,0,1-2,2H23V84h6V72h4V64Z" style="fill: #eff8ff"/>
  <rect x="52" y="49" width="26" height="8" style="fill: #b0b8c0"/>
  <path d="M72,49v6a2,2,0,0,1-2,2H68V73h6V57h4V49Z" style="fill: #eff8ff"/>
  <rect x="97" y="64" width="26" height="8" style="fill: #b0b8c0"/>
  <path d="M117,64v6a2,2,0,0,1-2,2h-2V84h6V72h4V64Z" style="fill: #eff8ff"/>
  <polygon points="66 29.29 66 49 72 49 72 31 66 29.29" style="fill: #eff8ff"/>
  <polygon points="111 44.29 111 64 117 64 117 46 111 44.29" style="fill: #eff8ff"/>
  <polygon points="21 44.29 21 64 27 64 27 46 21 44.29" style="fill: #eff8ff"/>
  <g>
    <path d="M18,39.24c2.16,1.92,4.17-.14,5.74-1.36,4.47-3.49,7.34-11.85-1.61-21a3.09,3.09,0,0,0-4.28,0c-4.15,4.23-6.11,8.51-5.83,12.72S14.55,36.87,18,39.24Zm2-15.61c3.08,4.34,2.18,7.86,0,9.57C17.87,31.53,16.87,28,20,23.63Z" style="fill: #31352e"/>
    <path d="M107.85,39.13c2.49,1.91,3.85.34,5.9-1.25A11.89,11.89,0,0,0,118,29.62c.28-4.21-1.68-8.49-5.83-12.72a3.09,3.09,0,0,0-4.28,0c-4.15,4.23-6.11,8.51-5.83,12.72C102.41,35.33,106.38,38,107.85,39.13ZM110,23.63a9,9,0,0,1,2,5.52,5.89,5.89,0,0,1-2,4C107.87,31.53,106.87,28,110,23.63Z" style="fill: #31352e"/>
    <path d="M63,24.24c2.16,1.92,4.17-.14,5.74-1.36A11.89,11.89,0,0,0,73,14.62c.28-4.21-1.68-8.49-5.83-12.72a3.09,3.09,0,0,0-4.28,0C58.71,6.13,56.75,10.41,57,14.62S59.59,21.9,63,24.24ZM65,8.63c2.31,3.26,3,7.23,0,9.57a5.93,5.93,0,0,1-2-4A8.93,8.93,0,0,1,65,8.63Z" style="fill: #31352e"/>
    <path d="M123,61h-3V46a3,3,0,0,0-2.18-2.88c-15-4.28-15-4.71-16.63-3.51S100,40.61,100,61H97a3,3,0,0,0-3,3v8a3,3,0,0,0,3,3h1v9a3,3,0,0,0,3,3h6v2.5a7.5,7.5,0,0,1-15,0V86a8,8,0,0,0-8-8H82.94A9,9,0,0,0,77,70.53V59.82A3,3,0,0,0,81,57V49a3,3,0,0,0-3-3H75V31a3,3,0,0,0-2.18-2.88c-15-4.28-15-4.71-16.63-3.51S55,25.61,55,46H52a3,3,0,0,0-3,3v8a3,3,0,0,0,3,3h1V70.53A9,9,0,0,0,47.06,78H46a8,8,0,0,0-8,8v3.5a7.5,7.5,0,0,1-15,0V87h6a3,3,0,0,0,3-3V74.82A3,3,0,0,0,36,72V64a3,3,0,0,0-3-3H30V46a3,3,0,0,0-2.18-2.88C13,38.88,12.8,38.39,11.19,39.6S10,40.61,10,61H7a3,3,0,0,0-3,3v8a3,3,0,0,0,3,3H8v9a3,3,0,0,0,3,3h6v2.5a13.5,13.5,0,0,0,27,0V86a2,2,0,0,1,2-2h1.06A9,9,0,0,0,53,91.47,15.91,15.91,0,0,0,52.53,112H50a9,9,0,0,0-9,9v4a3,3,0,0,0,3,3H86a3,3,0,0,0,3-3v-4a9,9,0,0,0-9-9H77.47A15.92,15.92,0,0,0,77,91.47,9,9,0,0,0,82.94,84C86.6,84,86,85.42,86,89.5a13.5,13.5,0,0,0,27,0V87h6a3,3,0,0,0,3-3V74.82A3,3,0,0,0,126,72V64A3,3,0,0,0,123,61ZM16,46l8,2.29V61H16ZM14,75h7c4,0,4-6,0-6H10V67H30v2.18A3,3,0,0,0,26,72v9H14ZM61,31l8,2.29V46H61Zm5,29c4,0,4-6,0-6H55V52H75v2.18A3,3,0,0,0,71,57V70H59V60ZM53,79a3,3,0,0,1,3-3H74a3,3,0,0,1,3,3v4a3,3,0,0,1-3,3H56a3,3,0,0,1-3-3Zm30,42v1H47v-1a3,3,0,0,1,3-3H80A3,3,0,0,1,83,121ZM55,102a10,10,0,1,1,10,10A10,10,0,0,1,55,102Zm51-56,8,2.29V61h-8Zm10,26v9H104V75h7c4,0,4-6,0-6H100V67h20v2.18A3,3,0,0,0,116,72Z" style="fill: #31352e"/>
  </g>
</svg>
