<?xml version="1.0" encoding="iso-8859-1"?>
<!-- Generator: Adobe Illustrator 16.0.2, SVG Export Plug-In . SVG Version: 6.00 Build 0)  -->
<!DOCTYPE svg PUBLIC "-//W3C//DTD SVG 1.1//EN" "http://www.w3.org/Graphics/SVG/1.1/DTD/svg11.dtd">
<svg version="1.1" id="co_x5F_furniture" xmlns="http://www.w3.org/2000/svg" xmlns:xlink="http://www.w3.org/1999/xlink" x="0px"
	 y="0px" width="40px" height="40px" viewBox="0 0 40 40" style="enable-background:new 0 0 40 40;" xml:space="preserve">
<path style="fill-rule:evenodd;clip-rule:evenodd;" d="M6.98,7.072v22.804c0,0.606,0.494,1.101,1.1,1.101h8.798
	c0.605,0,1.1-0.494,1.1-1.101V7.073c0.001-0.606-0.493-1.101-1.1-1.101H8.08C7.475,5.973,6.98,6.467,6.98,7.072L6.98,7.072z
	 M26.476,17.006c0.828,0,1.499,0.671,1.499,1.5c0,0.827-0.671,1.5-1.499,1.5s-1.499-0.673-1.499-1.5
	C24.977,17.677,25.647,17.006,26.476,17.006L26.476,17.006z M12.479,17.006c0.828,0,1.5,0.671,1.5,1.5c0,0.827-0.672,1.5-1.5,1.5
	s-1.5-0.673-1.5-1.5C10.979,17.677,11.65,17.006,12.479,17.006L12.479,17.006z M35.214,37.977h-1.479c-0.969,0-1.76-0.79-1.76-1.76
	v-0.24H6.98v0.24c0,0.97-0.791,1.76-1.76,1.76H3.741c-0.97,0-1.76-0.79-1.76-1.76L1.979,5.374C1.978,2.949,3.954,0.972,6.377,0.972
	h26.197c2.423,0,4.399,1.978,4.398,4.401v30.844C36.973,37.187,36.184,37.977,35.214,37.977L35.214,37.977z M31.975,29.876V7.073
	c0-0.606-0.494-1.101-1.1-1.101h-8.799c-0.605,0-1.1,0.494-1.1,1.1v22.804c0,0.606,0.494,1.101,1.101,1.101h8.798
	C31.48,30.977,31.975,30.482,31.975,29.876z"/>
</svg>
