<svg height="512pt" viewBox="-61 0 512 512" width="512pt" xmlns="http://www.w3.org/2000/svg"><path d="m345 0h-300c-24.902344 0-45 20.097656-45 45v422c0 24.902344 20.097656 45 45 45h300c24.902344 0 45-20.097656 45-45v-422c0-24.902344-20.097656-45-45-45zm0 0" fill="#3e5959"/><path d="m390 45v422c0 24.902344-20.097656 45-45 45h-150v-512h150c24.902344 0 45 20.097656 45 45zm0 0" fill="#384949"/><path d="m30 152h150v150h-150zm0 0" fill="#979fef"/><path d="m210 152h150v150h-150zm0 0" fill="#7984eb"/><path d="m345 482h-135v-150h150v135c0 8.285156-6.714844 15-15 15zm0 0" fill="#ff4b00"/><path d="m180 482h-135c-8.285156 0-15-6.714844-15-15v-135h150zm0 0" fill="#979fef"/><path d="m360 45v77h-330v-77c0-8.402344 6.597656-15 15-15h300c8.402344 0 15 6.597656 15 15zm0 0" fill="#deecf1"/><path d="m360 45v77h-165v-92h150c8.402344 0 15 6.597656 15 15zm0 0" fill="#c6e2e7"/><path d="m135 212h-15v-15c0-8.289062-6.710938-15-15-15s-15 6.710938-15 15v15h-15c-8.289062 0-15 6.710938-15 15s6.710938 15 15 15h15v15c0 8.289062 6.710938 15 15 15s15-6.710938 15-15v-15h15c8.289062 0 15-6.710938 15-15s-6.710938-15-15-15zm0 0" fill="#deecf1"/><path d="m136.816406 375.183594c-5.859375-5.859375-15.351562-5.859375-21.210937 0l-10.605469 10.605468-10.605469-10.605468c-5.859375-5.859375-15.351562-5.859375-21.210937 0s-5.859375 15.351562 0 21.210937l10.605468 10.605469-10.605468 10.605469c-5.859375 5.859375-5.859375 15.351562 0 21.210937s15.351562 5.859375 21.210937 0l10.605469-10.605468 10.605469 10.605468c5.859375 5.859375 15.351562 5.859375 21.210937 0s5.859375-15.351562 0-21.210937l-10.605468-10.605469 10.605468-10.605469c5.859375-5.859375 5.859375-15.351562 0-21.210937zm0 0" fill="#deecf1"/><g fill="#c6e2e7"><path d="m315 242h-60c-8.289062 0-15-6.710938-15-15s6.710938-15 15-15h60c8.289062 0 15 6.710938 15 15s-6.710938 15-15 15zm0 0"/><path d="m315 452h-60c-8.289062 0-15-6.710938-15-15s6.710938-15 15-15h60c8.289062 0 15 6.710938 15 15s-6.710938 15-15 15zm0 0"/><path d="m315 392h-60c-8.289062 0-15-6.710938-15-15s6.710938-15 15-15h60c8.289062 0 15 6.710938 15 15s-6.710938 15-15 15zm0 0"/></g><path d="m105 91h-30c-8.289062 0-15-6.710938-15-15s6.710938-15 15-15h30c8.289062 0 15 6.710938 15 15s-6.710938 15-15 15zm0 0" fill="#3e5959"/></svg>