<?xml version="1.0" encoding="iso-8859-1"?>
<!-- Generator: Adobe Illustrator 16.0.2, SVG Export Plug-In . SVG Version: 6.00 Build 0)  -->
<!DOCTYPE svg PUBLIC "-//W3C//DTD SVG 1.1//EN" "http://www.w3.org/Graphics/SVG/1.1/DTD/svg11.dtd">
<svg version="1.1" id="co_x5F_furniture" xmlns="http://www.w3.org/2000/svg" xmlns:xlink="http://www.w3.org/1999/xlink" x="0px"
	 y="0px" width="40px" height="40px" viewBox="0 0 40 40" style="enable-background:new 0 0 40 40;" xml:space="preserve">
<path style="fill-rule:evenodd;clip-rule:evenodd;" d="M16.996,28.989V27.09c0-0.605,0.494-1.101,1.1-1.101h2.799
	c0.605,0,1.1,0.495,1.1,1.101v1.899h3.5c1.375,0,2.499,1.126,2.499,2.5v0.001c0,0.741-0.327,1.409-0.843,1.869
	c0.51,0.362,0.843,0.958,0.843,1.632c0,1.104-0.896,2-2,2c-1.104,0-1.999-0.896-1.999-2c0-0.365,0.097-0.706,0.268-1.001h-2.963
	c0.17,0.295,0.269,0.636,0.269,1.001c0,1.104-0.896,2-2,2c-1.104,0-1.999-0.896-1.999-2c0-0.365,0.097-0.706,0.268-1.001h-3.107
	c0.17,0.295,0.268,0.636,0.268,1.001c0,1.104-0.896,2-1.999,2c-1.104,0-2-0.896-2-2c0-0.674,0.333-1.27,0.843-1.632
	c-1.067-0.95-0.843-1.87-0.843-1.87c0-1.374,1.124-2.5,2.499-2.5H16.996L16.996,28.989z M8.018,11.987H7.979
	c-1.091,0-1.98,0.89-1.98,1.98v5.38c0,1.455,1.187,2.642,2.64,2.642h0.26c0.605,0,1.1-0.495,1.1-1.101v-6.921
	C9.997,12.877,9.108,11.987,8.018,11.987L8.018,11.987z M30.973,11.987h0.04c1.09,0,1.979,0.89,1.979,1.98v5.38
	c0,1.455-1.187,2.642-2.64,2.642h-0.26c-0.605,0-1.1-0.495-1.1-1.101v-6.921C28.993,12.877,29.883,11.987,30.973,11.987
	L30.973,11.987z M14.297,3.989h10.396c1.817,0,3.3,1.484,3.3,3.301v7.397c0,1.816-1.482,3.3-3.3,3.3H14.297
	c-1.817,0-3.3-1.482-3.3-3.3V7.29C10.997,5.473,12.479,3.989,14.297,3.989L14.297,3.989z M11.987,18.988h15.017
	c0.545,0,0.989,0.445,0.989,0.99v0.71c0,1.817-1.482,3.301-3.3,3.301H14.297c-1.817,0-3.3-1.483-3.3-3.301v-0.71
	C10.997,19.433,11.441,18.988,11.987,18.988z"/>
</svg>
