<?xml version="1.0" encoding="iso-8859-1"?>
<!-- Generator: Adobe Illustrator 16.0.2, SVG Export Plug-In . SVG Version: 6.00 Build 0)  -->
<!DOCTYPE svg PUBLIC "-//W3C//DTD SVG 1.1//EN" "http://www.w3.org/Graphics/SVG/1.1/DTD/svg11.dtd">
<svg version="1.1" id="co_x5F_education_x5F_1_x5C_2"
	 xmlns="http://www.w3.org/2000/svg" xmlns:xlink="http://www.w3.org/1999/xlink" x="0px" y="0px" width="40px" height="40px"
	 viewBox="0 0 40 40" style="enable-background:new 0 0 40 40;" xml:space="preserve">
<path style="fill-rule:evenodd;clip-rule:evenodd;" d="M26.712,13.038L37.26,27.981c0.492,0.697,0.725,1.43,0.725,2.283v2.781
	c0,2.182-1.778,3.96-3.959,3.961c-8.691,0-19.382,0-28.073,0c-2.181,0-3.959-1.779-3.959-3.961v-2.781
	c0-0.854,0.233-1.586,0.725-2.283l10.548-14.943c0.492-0.697,0.725-1.43,0.725-2.283V6.013h-0.68c-0.727,0-1.319-0.593-1.319-1.32
	V3.333c0-0.727,0.592-1.319,1.319-1.319c3.786,0,9.572,0,13.358,0c0.726,0,1.319,0.593,1.319,1.319v1.359
	c0,0.728-0.593,1.32-1.32,1.32h-0.68v4.742C25.987,11.608,26.22,12.341,26.712,13.038L26.712,13.038z M18.807,15.824
	c-1.104,0-2,0.896-2,1.999c0,1.104,0.896,2,2,2c1.104,0,2-0.896,2-2C20.807,16.72,19.911,15.824,18.807,15.824L18.807,15.824z
	 M14.309,22.474L9.265,29.62c-0.411,0.582,0.004,1.387,0.719,1.387h20.01c0.714,0,1.129-0.806,0.719-1.387l-5.038-7.137
	c0,0-1.398,0.895-2.099,0.582l-2.676-1.197c-0.592-0.265-1.204-0.265-1.795,0.001l-2.676,1.196
	C15.333,23.554,14.309,22.474,14.309,22.474z M25.522,26.788c-0.726,0-1.314,0.589-1.314,1.314s0.588,1.314,1.314,1.314
	c0.726,0,1.314-0.589,1.314-1.314S26.248,26.788,25.522,26.788L25.522,26.788z M20.301,23.457c-1.206,0-2.185,0.979-2.185,2.185
	c0,1.207,0.979,2.185,2.185,2.185c1.207,0,2.185-0.978,2.185-2.185C22.486,24.436,21.508,23.457,20.301,23.457L20.301,23.457z
	 M14.109,26.104c-0.931,0-1.685,0.754-1.685,1.685s0.754,1.685,1.685,1.685c0.93,0,1.685-0.754,1.685-1.685
	S15.04,26.104,14.109,26.104L14.109,26.104z M17.989,6.013v5.742c0,0.854-0.232,1.586-0.725,2.283L6.273,29.608
	c-0.191,0.271-0.282,0.556-0.282,0.888v0.97c0,0.849,0.692,1.541,1.54,1.541h24.914c0.848,0,1.54-0.692,1.54-1.541v-0.97
	c0-0.332-0.091-0.616-0.282-0.888l-10.991-15.57c-0.492-0.697-0.725-1.43-0.725-2.283V6.013H17.989z"/>
</svg>
