<?xml version="1.0" encoding="iso-8859-1"?>
<!-- Generator: Adobe Illustrator 16.0.2, SVG Export Plug-In . SVG Version: 6.00 Build 0)  -->
<!DOCTYPE svg PUBLIC "-//W3C//DTD SVG 1.1//EN" "http://www.w3.org/Graphics/SVG/1.1/DTD/svg11.dtd">
<svg version="1.1" id="co_x5F_mobile" xmlns="http://www.w3.org/2000/svg" xmlns:xlink="http://www.w3.org/1999/xlink" x="0px"
	 y="0px" width="40px" height="40px" viewBox="0 0 40 40" style="enable-background:new 0 0 40 40;" xml:space="preserve">
<path style="fill-rule:evenodd;clip-rule:evenodd;" d="M32.566,13.428c3.035,0.456,5.381,3.091,5.381,6.247l0,0
	c0,3.474-2.843,6.317-6.317,6.317h-5.047l-3.446-3.446l-0.001-0.001h-0.011c-0.868-0.866-2.011-1.299-3.154-1.298v-0.01
	c-0.18,0-0.363,0.012-0.548,0.035c-0.959,0.12-1.885,0.545-2.615,1.275l-3.447,3.446H8.354c-3.473,0-6.317-2.842-6.317-6.317l0,0
	c0-2.872,1.943-5.313,4.579-6.073c-0.073-0.332-0.112-0.677-0.112-1.031c0-2.64,2.141-4.782,4.781-4.782
	c1.569,0,2.963,0.758,3.835,1.926c1.318-3.327,4.59-5.685,8.418-5.685c4.991,0,9.039,4.006,9.039,8.948
	C32.578,13.129,32.574,13.279,32.566,13.428L32.566,13.428z M16.432,32.418l1.541-1.542v5.067c0,1.09,0.89,1.979,1.98,1.979h0.04
	c1.09,0,1.979-0.889,1.979-1.979v-5.067l1.542,1.542c0.771,0.771,2.029,0.771,2.8,0l0.028-0.028c0.771-0.771,0.77-2.03,0-2.8
	l-5.124-5.125c-0.686-0.686-1.803-0.685-2.489,0l-5.125,5.125c-0.77,0.77-0.771,2.029,0,2.8l0.028,0.028
	C14.403,33.189,15.66,33.189,16.432,32.418z"/>
</svg>
