<?xml version="1.0" encoding="iso-8859-1"?>
<!-- Generator: Adobe Illustrator 16.0.2, SVG Export Plug-In . SVG Version: 6.00 Build 0)  -->
<!DOCTYPE svg PUBLIC "-//W3C//DTD SVG 1.1//EN" "http://www.w3.org/Graphics/SVG/1.1/DTD/svg11.dtd">
<svg version="1.1" id="co_x5F_food_x5F_3" xmlns="http://www.w3.org/2000/svg" xmlns:xlink="http://www.w3.org/1999/xlink" x="0px"
	 y="0px" width="40px" height="40px" viewBox="0 0 40 40" style="enable-background:new 0 0 40 40;" xml:space="preserve">
<path style="fill-rule:evenodd;clip-rule:evenodd;" d="M37.34,24.64l-9.42,9.42c-1.285,1.285-2.85,1.934-4.667,1.934H12.724
	c-1.816,0-3.381-0.648-4.666-1.934L5.28,31.282c-0.856-0.857-1.288-1.899-1.288-3.11L4,13.001c0-1.657,1.343-3,3-3h10v2.996h-1.638
	c-0.242,0-0.45,0.087-0.622,0.258l-1.483,1.484c-0.172,0.171-0.259,0.38-0.259,0.622v9.194c0,0.242,0.198,0.439,0.44,0.439h9.118
	c0.242,0,0.44-0.197,0.44-0.439v-9.194c0-0.242-0.087-0.451-0.258-0.622l-1.484-1.484c-0.171-0.171-0.38-0.258-0.622-0.258H19
	v-2.996h10c1.657,0,3,1.343,3,3v4l3.785-0.004c1.212,0,2.199,0.986,2.199,2.198v3.888C37.984,23.689,37.769,24.211,37.34,24.64z
	 M34.986,20.655c0-0.363-0.298-0.66-0.661-0.66H32l-0.014,5.999l2.806-2.806c0.129-0.128,0.194-0.285,0.194-0.468V20.655z
	 M23.667,7.998h-0.359c-0.728,0-1.32-0.593-1.32-1.32V4.318c0-0.727,0.593-1.319,1.32-1.319h0.359c0.728,0,1.32,0.593,1.32,1.319
	v2.359C24.987,7.405,24.395,7.998,23.667,7.998z M17.67,7.998h-0.361c-0.726,0-1.318-0.593-1.318-1.32V4.318
	c0-0.727,0.593-1.319,1.318-1.319h0.361c0.726,0,1.318,0.593,1.318,1.319v2.359C18.988,7.405,18.396,7.998,17.67,7.998z
	 M11.671,7.998h-0.359c-0.728,0-1.32-0.593-1.32-1.32V4.318c0-0.727,0.593-1.319,1.32-1.319h0.359c0.726,0,1.319,0.593,1.319,1.319
	v2.359C12.99,7.405,12.396,7.998,11.671,7.998z"/>
</svg>
