<?xml version="1.0" encoding="iso-8859-1"?>
<!-- Generator: Adobe Illustrator 16.0.2, SVG Export Plug-In . SVG Version: 6.00 Build 0)  -->
<!DOCTYPE svg PUBLIC "-//W3C//DTD SVG 1.1//EN" "http://www.w3.org/Graphics/SVG/1.1/DTD/svg11.dtd">
<svg version="1.1" id="co_x5F_appliance" xmlns="http://www.w3.org/2000/svg" xmlns:xlink="http://www.w3.org/1999/xlink" x="0px"
	 y="0px" width="40px" height="40px" viewBox="0 0 40 40" style="enable-background:new 0 0 40 40;" xml:space="preserve">
<path style="fill-rule:evenodd;clip-rule:evenodd;" d="M34.973,20.781v9.918c0,1.817-1.482,3.301-3.299,3.301
	c-1.459,0-2.92,0-4.379,0c-0.727,0-1.32-0.593-1.32-1.32v-0.36c0-0.727,0.594-1.32,1.32-1.32h0.68v-4h-1.898
	c-0.605,0-1.102-0.494-1.102-1.1v-1.801c0-0.606,0.494-1.101,1.102-1.101h1.898v-1.107c0-0.484-0.395-0.88-0.879-0.88h-6.24
	c-0.484,0-0.879,0.396-0.879,0.88v3.348c0,0.97-0.791,1.761-1.76,1.761h-0.48c-0.969,0-1.76-0.791-1.76-1.761
	c0-5.28,0-10.561,0-15.841c0-2.425,1.977-4.401,4.4-4.402h13.197c2.422,0,4.398,1.978,4.398,4.402v7.212
	C37.973,18.544,36.713,20.193,34.973,20.781L34.973,20.781z M23.977,10.996c-1.105,0-2,0.896-2,2c0,1.105,0.895,2.001,2,2.001
	c1.104,0,1.998-0.896,1.998-2.001C25.975,11.893,25.08,10.996,23.977,10.996L23.977,10.996z M2.74,10.996H7.18l1.158-1.932
	c0.406-0.678,1.094-1.068,1.887-1.068h2.006c0.967,0,1.76,0.791,1.76,1.761v6.48c0,0.97-0.791,1.761-1.76,1.761h-2.006
	c-0.795,0-1.479-0.39-1.887-1.069L7.18,14.997H2.74c-0.969,0-1.76-0.79-1.76-1.761v-0.479C0.98,11.787,1.771,10.996,2.74,10.996z"/>
</svg>
