<?xml version="1.0" encoding="iso-8859-1"?>
<!-- Generator: Adobe Illustrator 16.0.2, SVG Export Plug-In . SVG Version: 6.00 Build 0)  -->
<!DOCTYPE svg PUBLIC "-//W3C//DTD SVG 1.1//EN" "http://www.w3.org/Graphics/SVG/1.1/DTD/svg11.dtd">
<svg version="1.1" id="co_x5F_documents" xmlns="http://www.w3.org/2000/svg" xmlns:xlink="http://www.w3.org/1999/xlink" x="0px"
	 y="0px" width="40px" height="40px" viewBox="0 0 40 40" style="enable-background:new 0 0 40 40;" xml:space="preserve">
<path style="fill-rule:evenodd;clip-rule:evenodd;" d="M8.589,26.683c1.504-0.595,3.049-0.722,4.396-0.451V9.906
	c0-1.595,1.063-2.939,2.615-3.308l15.194-3.655c1.046-0.248,2.049-0.025,2.893,0.641c0.844,0.667,1.292,1.593,1.292,2.667v20.618
	h-0.014c-0.17,2.167-1.916,4.35-4.561,5.396c-3.419,1.351-7.044,0.291-8.096-2.368s0.868-5.912,4.288-7.265
	c1.505-0.594,3.048-0.722,4.396-0.451V10.648l-14.017,3.376V30.92h-0.015c-0.17,2.166-1.917,4.35-4.562,5.395
	c-3.419,1.353-7.044,0.292-8.096-2.367S5.17,28.035,8.589,26.683z"/>
</svg>
