<?xml version="1.0" encoding="iso-8859-1"?>
<!-- Generator: Adobe Illustrator 16.0.2, SVG Export Plug-In . SVG Version: 6.00 Build 0)  -->
<!DOCTYPE svg PUBLIC "-//W3C//DTD SVG 1.1//EN" "http://www.w3.org/Graphics/SVG/1.1/DTD/svg11.dtd">
<svg version="1.1" id="co_x5F_multimedia" xmlns="http://www.w3.org/2000/svg" xmlns:xlink="http://www.w3.org/1999/xlink" x="0px"
	 y="0px" width="40px" height="40px" viewBox="0 0 40 40" style="enable-background:new 0 0 40 40;" xml:space="preserve">
<path style="fill-rule:evenodd;clip-rule:evenodd;" d="M31.578,36.011H8.383c-2.424,0-4.4-1.977-4.4-4.4c0-9.065,0-14.13,0-23.195
	c0-2.424,1.977-4.4,4.4-4.4h23.196c2.423,0,4.399,1.976,4.399,4.4c0,9.065,0,14.13,0,23.195
	C35.979,34.034,34.002,36.011,31.578,36.011z M32,9c0-0.552-0.447-1-1-1H9C8.447,8,8,8.448,8,9v22c0,0.552,0.447,1,1,1h22
	c0.553,0,1-0.447,1-1V9z M26,22h-4v4c0,1.104-0.896,2-2,2s-2-0.896-2-2v-4h-4c-1.104,0-2-0.896-2-2c0-1.104,0.896-2,2-2h4v-4
	c0-1.104,0.896-2,2-2s2,0.896,2,2v4h4c1.104,0,2,0.896,2,2C28,21.104,27.104,22,26,22z"/>
</svg>
