<?xml version="1.0" encoding="iso-8859-1"?>
<!-- Generator: Adobe Illustrator 16.0.2, SVG Export Plug-In . SVG Version: 6.00 Build 0)  -->
<!DOCTYPE svg PUBLIC "-//W3C//DTD SVG 1.1//EN" "http://www.w3.org/Graphics/SVG/1.1/DTD/svg11.dtd">
<svg version="1.1" id="co_x5F_mobile" xmlns="http://www.w3.org/2000/svg" xmlns:xlink="http://www.w3.org/1999/xlink" x="0px"
	 y="0px" width="40px" height="40px" viewBox="0 0 40 40" style="enable-background:new 0 0 40 40;" xml:space="preserve">
<path style="fill-rule:evenodd;clip-rule:evenodd;" d="M31.599,35.987H8.371c-2.424,0-4.4-1.977-4.4-4.401c0-8.064,0-16.13,0-24.197
	c0-2.422,1.976-4.399,4.4-4.399h23.228c2.423,0,4.4,1.977,4.4,4.399c0,8.066,0,16.132,0,24.197
	C35.999,34.011,34.022,35.987,31.599,35.987z M31.999,8.09c0-0.605-0.494-1.1-1.1-1.1H9.07c-0.606,0-1.1,0.495-1.1,1.1v14.798
	c0,0.606,0.494,1.101,1.1,1.101h4.139c0.969,0,1.76,0.791,1.76,1.759v2.479c0,0.97,0.791,1.76,1.76,1.76h6.51
	c0.969,0,1.76-0.79,1.76-1.76v-2.479c0-0.969,0.79-1.759,1.76-1.759h4.139c0.606,0,1.1-0.494,1.1-1.101V8.09z M21.227,22.418
	c-0.686,0.686-1.803,0.686-2.489,0l-5.125-5.124c-0.792-0.792-0.751-2.049,0.028-2.828c0.771-0.772,2.029-0.772,2.8,0l1.542,1.542
	l0-4.788c0-1.09,0.908-1.952,1.986-1.952c1.091,0,2.014,0.862,2.014,1.952l0,4.788l1.542-1.542c0.771-0.772,2.029-0.772,2.8,0
	c0.779,0.779,0.819,2.036,0.028,2.828L21.227,22.418z"/>
</svg>
