<svg height="512pt" viewBox="0 0 512 512" width="512pt" xmlns="http://www.w3.org/2000/svg"><path d="m497 512h-77l-30-90 30-90h77c8.402344 0 15 6.597656 15 15v150c0 8.402344-6.597656 15-15 15zm0 0" fill="#ff9f00"/><path d="m497 512h-77l-30-90h122v75c0 8.402344-6.597656 15-15 15zm0 0" fill="#ff7816"/><path d="m420 512h-90l-30-90 30-90h90zm0 0" fill="#ff7816"/><path d="m420 512h-90l-30-90h120zm0 0" fill="#ff4b00"/><path d="m330 512h-90l-30-90 30-90h90zm0 0" fill="#ff4b00"/><path d="m330 422v90h-90l-30-90zm0 0" fill="#dd3400"/><path d="m90 332h150v180h-150zm0 0" fill="#a8d3d8"/><path d="m90 422h150v90h-150zm0 0" fill="#8ebac5"/><path d="m440.019531 199.261719-53.035156 53.03125-84.851563-42.425781-42.425781-84.851563 53.03125-53.035156c5.941407-5.9375 15.273438-5.9375 21.214844 0l106.066406 106.066406c5.9375 5.941406 5.9375 15.273437 0 21.214844zm0 0" fill="#ffe470"/><path d="m440.019531 199.261719-53.035156 53.03125-84.851563-42.425781 84.851563-84.851563 53.035156 53.03125c5.9375 5.941406 5.9375 15.273437 0 21.214844zm0 0" fill="#ffd400"/><path d="m386.984375 252.292969-63.640625 63.640625-84.851562-42.425782-42.425782-84.851562 63.640625-63.640625zm0 0" fill="#ffd400"/><path d="m386.984375 252.292969-63.640625 63.640625-84.851562-42.425782 84.851562-84.851562zm0 0" fill="#fdbf00"/><path d="m323.34375 315.933594-63.636719 63.640625-84.855469-42.425781-42.425781-84.855469 63.640625-63.636719zm0 0" fill="#fdbf00"/><path d="m259.707031 252.292969 63.636719 63.640625-63.636719 63.640625-84.855469-42.425781zm0 0" fill="#ff9f00"/><path d="m259.800781 379.699219-106.199219 105.902343-127.203124-127.203124 105.902343-106.199219zm0 0" fill="#c6e2e7"/><path d="m259.800781 379.699219-106.199219 105.902343-63.601562-63.601562 106.199219-105.902344zm0 0" fill="#a8d3d8"/><path d="m180 15v77l-90 30-90-30v-77c0-8.402344 6.597656-15 15-15h150c8.402344 0 15 6.597656 15 15zm0 0" fill="#b5baf3"/><path d="m180 15v77l-90 30v-122h75c8.402344 0 15 6.597656 15 15zm0 0" fill="#979fef"/><path d="m180 92v90l-90 30-90-30v-90zm0 0" fill="#979fef"/><path d="m180 92v90l-90 30v-120zm0 0" fill="#7984eb"/><path d="m180 182v90l-90 30-90-30v-90zm0 0" fill="#7984eb"/><path d="m90 182h90v90l-90 30zm0 0" fill="#6b77e8"/><path d="m180 272v150c0 49.5-40.5 90-90 90s-90-40.5-90-90v-150zm0 0" fill="#deecf1"/><path d="m90 272h90v150c0 49.5-40.5 90-90 90zm0 0" fill="#c6e2e7"/><path d="m120 422c0 8.398438-6.597656 15-15 15h-30c-8.402344 0-15-6.601562-15-15 0-8.402344 6.597656-15 15-15h30c8.402344 0 15 6.597656 15 15zm0 0" fill="#3e5959"/><path d="m120 422c0 8.398438-6.597656 15-15 15h-15v-30h15c8.402344 0 15 6.597656 15 15zm0 0" fill="#384949"/></svg>