<svg height="512pt" viewBox="-61 0 512 512" width="512pt" xmlns="http://www.w3.org/2000/svg"><path d="m330 135v302c0 8.398438-6.597656 15-15 15h-300c-8.402344 0-15-6.601562-15-15v-302c0-8.402344 6.597656-15 15-15h45l15.902344-15 14.097656 15h225c8.402344 0 15 6.597656 15 15zm0 0" fill="#979fef"/><path d="m330 135v302c0 8.398438-6.597656 15-15 15h-120v-332h120c8.402344 0 15 6.597656 15 15zm0 0" fill="#7984eb"/><path d="m375 180h-300c-8.402344 0-15 6.597656-15 15v302c0 8.398438 6.597656 15 15 15h300c8.402344 0 15-6.601562 15-15v-302c0-8.402344-6.597656-15-15-15zm0 0" fill="#deecf1"/><g fill="#c6e2e7"><path d="m390 195v302c0 8.398438-6.597656 15-15 15h-180v-332h180c8.402344 0 15 6.597656 15 15zm0 0"/><path d="m330 347c0 8.398438-6.597656 15-15 15h-180c-8.402344 0-15-6.601562-15-15 0-8.402344 6.597656-15 15-15h180c8.402344 0 15 6.597656 15 15zm0 0"/><path d="m330 407c0 8.398438-6.597656 15-15 15h-180c-8.402344 0-15-6.601562-15-15 0-8.402344 6.597656-15 15-15h180c8.402344 0 15 6.597656 15 15zm0 0"/></g><path d="m330 407c0 8.398438-6.597656 15-15 15h-120v-30h120c8.402344 0 15 6.597656 15 15zm0 0" fill="#a8d3d8"/><path d="m315 362h-120v-30h120c8.402344 0 15 6.597656 15 15 0 8.398438-6.597656 15-15 15zm0 0" fill="#a8d3d8"/><path d="m270 105v120c0 41.398438-33.601562 75-75 75s-75-33.601562-75-75v-120c0-24.902344 20.097656-45 45-45 11.699219 0 22.199219 4.5 30 11.699219 9.300781 8.101562 15 20.101562 15 33.300781v120c0 8.398438-6.597656 15-15 15s-15-6.601562-15-15v-120c0-8.402344-6.597656-15-15-15s-15 6.597656-15 15v120c0 24.898438 20.097656 45 45 45s45-20.101562 45-45v-120c0-30.902344-18.601562-57.300781-45-68.699219-9.300781-4.199219-19.5-6.300781-30-6.300781-41.398438 0-75 33.601562-75 75v15h-30v-15c0-57.898438 47.101562-105 105-105 10.5 0 20.398438 1.5 30 4.5 43.199219 12.898438 75 53.097656 75 100.5zm0 0" fill="#ff7816"/><path d="m195 240v-168.300781c9.300781 8.101562 15 20.101562 15 33.300781v120c0 8.398438-6.597656 15-15 15zm0 0" fill="#ff4b00"/><path d="m270 105v120c0 41.398438-33.601562 75-75 75v-30c24.902344 0 45-20.101562 45-45v-120c0-30.902344-18.601562-57.300781-45-68.699219v-31.800781c43.199219 12.898438 75 53.097656 75 100.5zm0 0" fill="#ff4b00"/></svg>