<?xml version="1.0" encoding="iso-8859-1"?>
<!-- Generator: Adobe Illustrator 17.1.0, SVG Export Plug-In . SVG Version: 6.00 Build 0)  -->
<!DOCTYPE svg PUBLIC "-//W3C//DTD SVG 1.1//EN" "http://www.w3.org/Graphics/SVG/1.1/DTD/svg11.dtd">
<svg version="1.1" id="co_x5F_baby" xmlns="http://www.w3.org/2000/svg" xmlns:xlink="http://www.w3.org/1999/xlink" x="0px"
	 y="0px" width="40px" height="40px" viewBox="0 0 40 40" style="enable-background:new 0 0 40 40;" xml:space="preserve">
<path d="M32,18c-4.688-1.047-12.804-1.257-19-0.71v-2.54c0-3.869,3.157-7.013,7.035-7c2.244,0,4.127,0.909,5.447,2.63
	c0.839,1.095,2.409,1.304,3.505,0.463c1.096-0.84,1.303-2.409,0.463-3.505c-2.269-2.96-5.611-4.588-9.407-4.588
	c-0.014,0-0.028,0-0.042,0c-6.617,0-12,5.383-12,12V18c-2.695,0.6-5,2.239-5,5v9c0,2.761,2.298,4.428,5,5
	c6.453,1.366,18.436,1.3,24,0c2.689-0.629,5-2.239,5-5v-9C37,20.239,34.695,18.602,32,18z M13.25,26.904
	c-1.243,0-2.25-0.993-2.25-2.219c0-1.226,1.007-2.219,2.25-2.219s2.25,0.993,2.25,2.219C15.5,25.91,14.492,26.904,13.25,26.904z
	 M24.346,31.08C23.4,32.471,21.809,33.387,20,33.387c-1.81,0-3.401-0.915-4.347-2.306c-0.288-0.424,0.045-1.001,0.558-1.001h7.578
	C24.301,30.079,24.635,30.657,24.346,31.08z M26.75,26.904c-1.243,0-2.25-0.993-2.25-2.219c0-1.226,1.007-2.219,2.25-2.219
	c1.243,0,2.25,0.993,2.25,2.219C29,25.91,27.993,26.904,26.75,26.904z"/>
</svg>
