<?xml version="1.0" encoding="iso-8859-1"?>
<!-- Generator: Adobe Illustrator 16.0.2, SVG Export Plug-In . SVG Version: 6.00 Build 0)  -->
<!DOCTYPE svg PUBLIC "-//W3C//DTD SVG 1.1//EN" "http://www.w3.org/Graphics/SVG/1.1/DTD/svg11.dtd">
<svg version="1.1" id="co_x5F_multimedia" xmlns="http://www.w3.org/2000/svg" xmlns:xlink="http://www.w3.org/1999/xlink" x="0px"
	 y="0px" width="40px" height="40px" viewBox="0 0 40 40" style="enable-background:new 0 0 40 40;" xml:space="preserve">
<path style="fill-rule:evenodd;clip-rule:evenodd;" d="M32.606,36.976H7.409c-2.423,0-4.399-1.977-4.399-4.4V16.378
	c0-2.423,1.977-4.4,4.399-4.4h25.197c2.423,0,4.399,1.977,4.399,4.4v16.197C37.006,34.999,35.029,36.976,32.606,36.976z
	 M33.007,17.105c0-0.605-0.495-1.1-1.101-1.1H8.109c-0.606,0-1.1,0.494-1.1,1.1v14.771c0,0.606,0.493,1.1,1.1,1.1h4.889V31.51
	c0-0.831,0.426-1.543,1.157-1.937l2.899-1.562c0.56-0.301,1.029-0.35,1.629-0.145c0.874,0.298,1.814,0.298,2.688,0
	c0.602-0.206,1.008-0.157,1.566,0.145l2.901,1.562c0.731,0.394,1.157,1.106,1.157,1.937v1.466h4.91c0.605,0,1.101-0.494,1.101-1.1
	V17.105z M20.008,26.429c-2.044,0-3.701-1.897-3.701-4.238c0-2.341,1.657-4.207,3.701-4.207s3.701,1.866,3.701,4.207
	C23.709,24.531,22.052,26.429,20.008,26.429z M27.399,9.979h-2.232c-0.364,0-0.678-0.13-0.935-0.388l-3.758-3.772
	C20.218,5.56,19.798,5.56,19.54,5.817l-3.774,3.774c-0.257,0.258-0.569,0.388-0.934,0.388h-2.249c-0.583,0-0.879-0.715-0.467-1.127
	l6.332-6.332c0.858-0.858,2.257-0.856,3.114,0.003l6.304,6.33C28.277,9.265,27.981,9.979,27.399,9.979z"/>
</svg>
