<?xml version="1.0" encoding="iso-8859-1"?>
<!-- Generator: Adobe Illustrator 16.0.2, SVG Export Plug-In . SVG Version: 6.00 Build 0)  -->
<!DOCTYPE svg PUBLIC "-//W3C//DTD SVG 1.1//EN" "http://www.w3.org/Graphics/SVG/1.1/DTD/svg11.dtd">
<svg version="1.1" id="co_x5F_food_x5F_1" xmlns="http://www.w3.org/2000/svg" xmlns:xlink="http://www.w3.org/1999/xlink" x="0px"
	 y="0px" width="40px" height="40px" viewBox="0 0 40 40" style="enable-background:new 0 0 40 40;" xml:space="preserve">
<path style="fill-rule:evenodd;clip-rule:evenodd;" d="M34.099,26.879c-1.902,1.572-3.678,1.566-5.332-0.781
	c-0.7-0.994-1.771-1.674-2.829-2.286C31.838,12.747,43.877,18.797,34.099,26.879z M30.249,16.342
	c-1.043-1.773-3.412-3.987-5.479-4.698C28.257,4.281,35.411,5.3,35.344,13.24C35.32,15.937,32.763,15.518,30.249,16.342z
	 M17.067,10.787c-0.832-2.213-2.302-4.11-4.182-5.469c5.694-4.293,8.502-4.316,14.229,0c-1.88,1.358-3.35,3.256-4.182,5.469
	C21.324,10.431,18.676,10.431,17.067,10.787z M9.751,16.342c-2.514-0.824-5.071-0.405-5.095-3.102
	c-0.068-7.94,7.087-8.959,10.573-1.597C13.163,12.354,10.794,14.568,9.751,16.342z M14.063,23.812
	c-1.059,0.612-2.129,1.292-2.829,2.286c-1.654,2.348-3.43,2.354-5.332,0.781C-3.877,18.797,8.162,12.747,14.063,23.812z
	 M15.904,22.953c-0.863-2.293-2.405-4.251-4.388-5.616c0.987-1.668,2.448-3.021,4.196-3.867c2.665-1.29,5.909-1.29,8.574,0
	c1.748,0.846,3.209,2.199,4.196,3.867c-1.982,1.365-3.524,3.323-4.388,5.616C21.445,21.982,18.555,21.982,15.904,22.953z
	 M26.859,26.982c2.945,2.859,4.456,4.364-3.859,5.964v2.055c0,3.999-6,3.999-6,0v-2.055c-8.315-1.6-6.805-3.104-3.859-5.964
	C16.885,23.346,23.115,23.346,26.859,26.982z"/>
</svg>
