<?xml version="1.0" encoding="iso-8859-1"?>
<!-- Generator: Adobe Illustrator 16.0.2, SVG Export Plug-In . SVG Version: 6.00 Build 0)  -->
<!DOCTYPE svg PUBLIC "-//W3C//DTD SVG 1.1//EN" "http://www.w3.org/Graphics/SVG/1.1/DTD/svg11.dtd">
<svg version="1.1" id="co_x5F_transport" xmlns="http://www.w3.org/2000/svg" xmlns:xlink="http://www.w3.org/1999/xlink" x="0px"
	 y="0px" width="40px" height="40px" viewBox="0 0 40 40" style="enable-background:new 0 0 40 40;" xml:space="preserve">
<path style="fill-rule:evenodd;clip-rule:evenodd;" d="M31.971,35.785c0,1.21-0.988,2.199-2.2,2.199h-0.599
	c-1.212,0-2.2-0.989-2.2-2.199V32H12.976v3.785c0,1.21-0.988,2.199-2.2,2.199h-0.6c-1.211,0-2.199-0.989-2.199-2.199L8,10
	c0-1.656,1.343-3,3-3h5V3.5c0-0.827,0.672-1.499,1.5-1.499S19,2.673,19,3.5V7h2V3.5c0-0.827,0.672-1.499,1.5-1.499S24,2.673,24,3.5
	V7h5c1.657,0,3,1.344,3,3L31.971,35.785z M26.972,28.986c1.104,0,2-0.896,2-2s-0.896-1.999-2-1.999
	c-1.104,0-1.999,0.896-1.999,1.999S25.868,28.986,26.972,28.986z M10.976,26.986c0,1.104,0.896,2,2,2c1.104,0,1.999-0.896,1.999-2
	s-0.896-1.999-1.999-1.999C11.871,24.987,10.976,25.883,10.976,26.986z M25.973,10.87c0-0.484-0.396-0.879-0.881-0.879H14.854
	c-0.484,0-0.88,0.395-0.88,0.879v0.24c0,0.484,0.396,0.881,0.88,0.881h10.237c0.485,0,0.881-0.396,0.881-0.881V10.87z M29,16.001
	C29,14.896,28.104,14,27,14H13c-1.104,0-2,0.896-2,2.001V21c0,1.104,0.896,2.001,2,2.001h14c1.104,0,2-0.896,2-2.001V16.001z"/>
</svg>
