<?xml version="1.0" encoding="iso-8859-1"?>
<!-- Generator: Adobe Illustrator 16.0.2, SVG Export Plug-In . SVG Version: 6.00 Build 0)  -->
<!DOCTYPE svg PUBLIC "-//W3C//DTD SVG 1.1//EN" "http://www.w3.org/Graphics/SVG/1.1/DTD/svg11.dtd">
<svg version="1.1" id="co_x5F_education_x5F_1_x5C_2"
	 xmlns="http://www.w3.org/2000/svg" xmlns:xlink="http://www.w3.org/1999/xlink" x="0px" y="0px" width="40px" height="40px"
	 viewBox="0 0 40 40" style="enable-background:new 0 0 40 40;" xml:space="preserve">
<path style="fill-rule:evenodd;clip-rule:evenodd;" d="M32.708,32.694c-7.01,7.01-18.38,7.01-25.39,0
	c-7.01-7.011-7.01-18.381,0-25.392c7.01-7.01,18.38-7.01,25.39,0C39.719,14.313,39.719,25.684,32.708,32.694z M6.526,20.671
	c-0.425,0.338-0.596,0.868-0.449,1.391l1.232,4.383c0.163,0.576,0.669,0.961,1.269,0.963l4.16,0.01
	c0.398,0.001,0.741-0.155,1.001-0.455l1.274-1.469c0.313-0.36,0.406-0.821,0.259-1.274l-1.393-4.285
	c-0.12-0.37-0.365-0.642-0.721-0.8l-2.167-0.961c-0.539-0.238-1.124-0.163-1.585,0.203L6.526,20.671z M19.012,10.644
	c0-0.438-0.191-0.813-0.545-1.07l-3.333-2.42c-0.473-0.344-1.085-0.342-1.556,0.002L9.735,9.96
	c-0.471,0.345-0.659,0.928-0.476,1.482l1.278,3.872c0.139,0.423,0.417,0.733,0.822,0.919l2.25,1.031
	c0.446,0.204,0.931,0.156,1.328-0.133l3.531-2.565c0.353-0.257,0.544-0.632,0.544-1.068V10.644z M17.647,26.147
	c-0.397,0-0.738,0.156-0.998,0.455l-1.277,1.471c-0.312,0.359-0.406,0.82-0.26,1.272l1.237,3.835
	c0.179,0.555,0.672,0.915,1.254,0.916l4.689,0.015c0.582,0.001,1.078-0.356,1.26-0.909l1.262-3.837
	c0.147-0.448,0.059-0.905-0.246-1.266l-1.253-1.483c-0.26-0.308-0.607-0.469-1.01-0.469H17.647z M30.241,9.96l-3.843-2.805
	c-0.471-0.344-1.084-0.345-1.556-0.002l-3.332,2.42c-0.353,0.258-0.544,0.633-0.544,1.07v2.854c0,0.437,0.191,0.812,0.544,1.068
	l3.527,2.563c0.397,0.288,0.881,0.337,1.327,0.133l2.341-1.072c0.346-0.159,0.585-0.426,0.705-0.788l1.307-3.959
	C30.899,10.888,30.712,10.304,30.241,9.96z M30.475,18.252c-0.393-0.292-0.875-0.345-1.322-0.146L26.82,19.14
	c-0.355,0.158-0.601,0.43-0.721,0.8l-1.39,4.277c-0.147,0.453-0.054,0.913,0.258,1.274l1.282,1.479
	c0.257,0.298,0.594,0.454,0.988,0.457l4.18,0.035c0.584,0.005,1.083-0.353,1.266-0.908l1.467-4.455
	c0.181-0.55-0.003-1.13-0.469-1.475L30.475,18.252z"/>
</svg>
