<svg height="512pt" viewBox="0 0 512 512" width="512pt" xmlns="http://www.w3.org/2000/svg"><path d="m486.414062 4.5-240 242-242 240c-9.300781 9.300781-3 25.5 10.5 25.5h107l15-15 15 15h30l15-15 15 15h30l15-15 15 15h30l15-15 15 15h30l15-15 15 15h30l15-15 15 15h45c4.199219 0 7.796876-1.800781 10.5-4.5 2.699219-2.699219 4.5-6.300781 4.5-10.5v-482c0-13.199219-16.203124-20.101562-25.5-10.5zm-79.5 417.5h-173.101562c-12.898438-.300781-19.5-16.199219-10.199219-25.5l172.800781-172.800781c9.296876-9.597657 25.5-2.699219 25.5 10.5v172.800781c0 4.199219-1.800781 7.800781-4.203124 10.800781-3 2.398438-6.597657 4.199219-10.796876 4.199219zm0 0" fill="#ffd400"/><path d="m507.414062 507.5c-2.703124 2.699219-6.300781 4.5-10.5 4.5h-45l-15-15-15 15h-30l-15-15-15 15h-30l-15-15-15 15h-30l-15-15-15 15h-30l-15-15-15 15h-30l-15-15-15 15h-107c-13.5 0-19.800781-16.199219-10.5-25.5l242-240 63.597657 63.601562-86.398438 86.398438c-9.300781 9.300781-2.699219 25.199219 10.199219 25.5h173.101562c4.199219 0 7.796876-1.800781 10.796876-4.199219zm0 0" fill="#fdbf00"/><g fill="#ff9f00"><path d="m136.914062 482c-8.292968 0-15 6.710938-15 15v15h30v-15c0-8.289062-6.710937-15-15-15zm0 0"/><path d="m196.914062 482c-8.292968 0-15 6.710938-15 15v15h30v-15c0-8.289062-6.710937-15-15-15zm0 0"/><path d="m256.914062 482c-8.292968 0-15 6.710938-15 15v15h30v-15c0-8.289062-6.710937-15-15-15zm0 0"/><path d="m316.914062 482c-8.292968 0-15 6.710938-15 15v15h30v-15c0-8.289062-6.710937-15-15-15zm0 0"/><path d="m376.914062 482c-8.292968 0-15 6.710938-15 15v15h30v-15c0-8.289062-6.710937-15-15-15zm0 0"/><path d="m436.914062 482c-8.292968 0-15 6.710938-15 15v15h30v-15c0-8.289062-6.710937-15-15-15zm0 0"/></g><path d="m116.566406 333.261719-10.605468 10.605469c-1.699219 1.695312-3.609376 2.757812-5.726563 3.605468l-63.640625 21.214844c-5.519531 1.695312-11.457031.421875-15.488281-3.609375-4.03125-4.027344-5.300781-9.96875-3.605469-15.484375l21.210938-63.640625c.851562-2.121094 1.910156-4.027344 3.609374-5.726563l10.605469-10.609374 53.03125 10.609374zm0 0" fill="#deecf1"/><path d="m105.960938 280.226562 10.605468 53.035157-10.605468 10.605469c-1.695313 1.695312-3.605469 2.757812-5.726563 3.605468l-63.640625 21.214844c-5.515625 1.695312-11.457031.421875-15.488281-3.609375zm0 0" fill="#a8d3d8"/><path d="m307.484375 142.339844-190.917969 190.921875-63.636718-63.640625 190.917968-190.921875 53.03125 10.609375zm0 0" fill="#ff7816"/><path d="m296.878906 89.308594 10.605469 53.03125-190.917969 190.921875-31.820312-31.820313zm0 0" fill="#dd3400"/><path d="m349.910156 99.914062-42.425781 42.425782-63.636719-63.640625 42.425782-42.425781 53.03125 10.609374zm0 0" fill="#deecf1"/><path d="m349.910156 99.914062-42.425781 42.425782-31.820313-31.820313 63.640626-63.636719zm0 0" fill="#a8d3d8"/><path d="m381.730469 68.09375-31.820313 31.820312-63.636718-63.640624 31.816406-31.820313c5.941406-5.9375 15.273437-5.9375 21.214844 0l42.425781 42.429687c5.941406 5.9375 5.941406 15.273438 0 21.210938zm0 0" fill="#4a696f"/><path d="m381.730469 68.09375-31.820313 31.820312-31.820312-31.820312 42.429687-42.425781 21.210938 21.214843c5.941406 5.9375 5.941406 15.273438 0 21.210938zm0 0" fill="#384949"/></svg>