<?xml version="1.0" encoding="iso-8859-1"?>
<!-- Generator: Adobe Illustrator 16.0.2, SVG Export Plug-In . SVG Version: 6.00 Build 0)  -->
<!DOCTYPE svg PUBLIC "-//W3C//DTD SVG 1.1//EN" "http://www.w3.org/Graphics/SVG/1.1/DTD/svg11.dtd">
<svg version="1.1" id="co_x5F_building" xmlns="http://www.w3.org/2000/svg" xmlns:xlink="http://www.w3.org/1999/xlink" x="0px"
	 y="0px" width="40px" height="40px" viewBox="0 0 40 40" style="enable-background:new 0 0 40 40;" xml:space="preserve">
<path style="fill-rule:evenodd;clip-rule:evenodd;" d="M30.306,11.884c0.78-0.781,2.048-0.781,2.828,0
	c0.197,0.197,0.344,0.425,0.441,0.668c0.057,0.143,0.025,0.296-0.083,0.403l-2.494,2.495l-5.02-5.065
	c-0.84-0.84,0.591-2.237,1.414-1.414L30.306,11.884L30.306,11.884z M12.525,11.503l3.176,5.501h4.621c0.363,0,0.66-0.297,0.66-0.66
	v-8.68c0-0.363-0.297-0.659-0.66-0.659H8.674c-0.363,0-0.659,0.296-0.659,0.659v8.68c0,0.363,0.296,0.66,0.66,0.66h4.718l-2.6-4.501
	C10.134,11.36,11.865,10.359,12.525,11.503L12.525,11.503z M7.204,4.005c-1.212,0-2.2,0.988-2.2,2.2v27.597
	c0,1.212,0.988,2.2,2.2,2.2h14.599c1.211,0,2.199-0.676,2.199-1.888V19.013h1.156c0.456,0,0.845,0.387,0.846,0.844v9.604
	c0,0.98,0.4,1.871,1.043,2.514c0.641,0.64,1.527,1.036,2.506,1.037h0.886c0.981,0,1.871-0.399,2.515-1.043
	c0.639-0.64,1.035-1.526,1.037-2.506l0.005-14.944c0-0.063-0.036-0.118-0.095-0.143c-0.059-0.023-0.123-0.012-0.168,0.033
	l-2.689,2.385c-0.03,0.03-0.045,0.066-0.045,0.11l0.005,12.246c0,0.457-0.39,0.844-0.846,0.844h-0.323
	c-0.457,0-0.844-0.39-0.844-0.846v-9.604c-0.002-1.947-1.604-3.549-3.551-3.549h-1.438v-9.79c0-1.212-0.988-2.2-2.199-2.2H7.204
	L7.204,4.005z M14.503,21.527c0.883,1.765,3.53,3.53,3.53,6.178c0,1.949-1.581,3.53-3.53,3.53s-3.53-1.581-3.53-3.53
	C10.973,25.058,13.621,23.292,14.503,21.527z"/>
</svg>
