<?xml version="1.0" encoding="iso-8859-1"?>
<!-- Generator: Adobe Illustrator 16.0.2, SVG Export Plug-In . SVG Version: 6.00 Build 0)  -->
<!DOCTYPE svg PUBLIC "-//W3C//DTD SVG 1.1//EN" "http://www.w3.org/Graphics/SVG/1.1/DTD/svg11.dtd">
<svg version="1.1" id="co_x5F_symbols" xmlns="http://www.w3.org/2000/svg" xmlns:xlink="http://www.w3.org/1999/xlink" x="0px"
	 y="0px" width="40px" height="40px" viewBox="0 0 40 40" style="enable-background:new 0 0 40 40;" xml:space="preserve">
<path style="fill-rule:evenodd;clip-rule:evenodd;" d="M20.103,8.993c6.072,0,10.997,4.925,10.997,10.997
	c0,6.073-4.925,10.998-10.997,10.998c-6.073,0-10.998-4.925-10.998-10.998C9.105,13.918,14.03,8.993,20.103,8.993L20.103,8.993z
	 M19.982,1.994h0.359c0.728,0,1.32,0.592,1.32,1.32v2.359c0,0.727-0.593,1.319-1.32,1.319h-0.359c-0.727,0-1.32-0.593-1.32-1.319
	V3.314C18.663,2.586,19.255,1.994,19.982,1.994L19.982,1.994z M11,4.465c-0.629,0.363-0.846,1.173-0.483,1.803l1.179,2.043
	c0.364,0.629,1.174,0.846,1.803,0.482l0.312-0.179c0.629-0.364,0.846-1.175,0.483-1.805l-1.179-2.042
	c-0.363-0.629-1.173-0.847-1.803-0.483L11,4.465L11,4.465z M4.458,11.096c-0.364,0.63-0.146,1.439,0.483,1.803l2.043,1.18
	c0.629,0.364,1.439,0.146,1.803-0.484l0.18-0.311c0.363-0.63,0.146-1.44-0.483-1.803l-2.043-1.18
	c-0.629-0.364-1.439-0.146-1.803,0.483L4.458,11.096L4.458,11.096z M2.106,20.11v-0.36c0-0.727,0.593-1.319,1.32-1.319h2.359
	c0.727,0,1.32,0.593,1.32,1.319v0.36c0,0.727-0.593,1.319-1.32,1.319H3.426C2.699,21.43,2.106,20.837,2.106,20.11L2.106,20.11z
	 M4.577,29.092c0.363,0.63,1.173,0.847,1.803,0.483l2.043-1.18c0.629-0.364,0.846-1.174,0.482-1.803l-0.18-0.312
	c-0.363-0.63-1.173-0.847-1.803-0.483l-2.043,1.18c-0.629,0.364-0.847,1.173-0.483,1.803L4.577,29.092L4.577,29.092z M11.208,35.635
	c0.629,0.364,1.439,0.146,1.803-0.483l1.18-2.043c0.363-0.629,0.146-1.439-0.483-1.803l-0.312-0.181
	c-0.629-0.363-1.439-0.146-1.802,0.483l-1.18,2.043c-0.363,0.629-0.146,1.439,0.483,1.802L11.208,35.635L11.208,35.635z
	 M20.222,37.987h-0.359c-0.727,0-1.32-0.593-1.32-1.32v-2.359c0-0.727,0.593-1.32,1.32-1.32h0.359c0.728,0,1.32,0.594,1.32,1.32
	v2.359C21.542,37.394,20.949,37.987,20.222,37.987L20.222,37.987z M29.204,35.516c0.629-0.364,0.846-1.174,0.483-1.803l-1.18-2.043
	c-0.363-0.63-1.173-0.847-1.803-0.483l-0.312,0.18c-0.629,0.363-0.846,1.174-0.483,1.803l1.18,2.043
	c0.363,0.629,1.173,0.847,1.803,0.484L29.204,35.516L29.204,35.516z M35.747,28.885c0.363-0.629,0.146-1.439-0.483-1.803
	l-2.043-1.18c-0.629-0.364-1.439-0.146-1.803,0.482l-0.18,0.313c-0.364,0.629-0.146,1.439,0.483,1.802l2.043,1.18
	c0.629,0.364,1.44,0.146,1.803-0.483L35.747,28.885L35.747,28.885z M38.098,19.871v0.36c0,0.727-0.593,1.319-1.32,1.319h-2.359
	c-0.727,0-1.32-0.592-1.32-1.319v-0.36c0-0.727,0.593-1.32,1.32-1.32h2.359C37.505,18.551,38.098,19.144,38.098,19.871
	L38.098,19.871z M35.628,10.888c-0.364-0.629-1.174-0.846-1.803-0.482l-2.043,1.179c-0.63,0.363-0.846,1.174-0.483,1.803l0.18,0.311
	c0.364,0.629,1.174,0.847,1.803,0.483l2.043-1.179c0.629-0.364,0.846-1.174,0.483-1.803L35.628,10.888L35.628,10.888z M28.997,4.345
	c-0.629-0.363-1.439-0.146-1.803,0.484l-1.18,2.042c-0.363,0.629-0.146,1.44,0.483,1.804l0.312,0.179
	c0.629,0.364,1.44,0.146,1.803-0.483l1.18-2.043c0.363-0.63,0.146-1.44-0.483-1.803L28.997,4.345z"/>
</svg>
