<svg height="512pt" viewBox="0 0 512 512" width="512pt" xmlns="http://www.w3.org/2000/svg"><path d="m407 482h-121c-8.289062 0-15-6.710938-15-15s6.710938-15 15-15h121c8.277344 0 15-6.722656 15-15v-61c0-8.289062 6.710938-15 15-15s15 6.710938 15 15v61c0 24.8125-20.1875 45-45 45zm0 0" fill="#8ebac5"/><path d="m452 196v30l-28.5 6c-.898438-1.800781-1.5-3.898438-1.5-6v-30c0-90.902344-75.097656-166-166-166s-166 75.097656-166 166v30c0 3-1.199219 6-2.699219 8.398438l-27.300781-8.398438v-30c0-107.402344 88.597656-196 196-196s196 88.597656 196 196zm0 0" fill="#a8d3d8"/><path d="m452 196v30l-28.5 6c-.898438-1.800781-1.5-3.898438-1.5-6v-30c0-90.902344-75.097656-166-166-166v-30c107.402344 0 196 88.597656 196 196zm0 0" fill="#8ebac5"/><path d="m467 391h-30c-8.289062 0-15-6.710938-15-15v-150c0-8.289062 6.710938-15 15-15h30c24.8125 0 45 20.1875 45 45v90c0 24.8125-20.1875 45-45 45zm0 0" fill="#cc2e43"/><path d="m75 391h-30c-24.8125 0-45-20.1875-45-45v-90c0-24.8125 20.1875-45 45-45h30c8.289062 0 15 6.710938 15 15v150c0 8.289062-6.710938 15-15 15zm0 0" fill="#e63950"/><path d="m105 421c-24.8125 0-45-20.1875-45-45v-150c0-24.8125 20.1875-45 45-45s45 20.1875 45 45v150c0 24.8125-20.1875 45-45 45zm0 0" fill="#596c76"/><path d="m407 421c-24.8125 0-45-20.1875-45-45v-150c0-24.8125 20.1875-45 45-45s45 20.1875 45 45v150c0 24.8125-20.1875 45-45 45zm0 0" fill="#465a61"/><path d="m256 422c-24.902344 0-45 20.097656-45 45 0 24.898438 20.097656 45 45 45s45-20.101562 45-45c0-24.902344-20.097656-45-45-45zm0 0" fill="#e63950"/><path d="m301 467c0 24.898438-20.097656 45-45 45v-90c24.902344 0 45 20.097656 45 45zm0 0" fill="#cc2e43"/></svg>