<?xml version="1.0"?>
<svg xmlns="http://www.w3.org/2000/svg" height="512px" viewBox="0 0 512 512" width="512px" class=""><g transform="matrix(0.494839 0 0 0.494839 129.321 129.321)"><path d="m512 467v-421c0-24.8125-20.1875-46-45-46h-15l-31 23.4375v464.1875l31 24.375h15c24.8125 0 45-20.1875 45-45zm0 0" fill="#dfd7d5" data-original="#DFD7D5" class=""/><path d="m452 0v512h-377c-8.402344 0-15-6.597656-15-15v-30.902344l-15-15.898437 15-14.699219v-74.402344l-15-14.097656 15-16.5v-74.402344l-15-13.195312 15-17.402344v-74.402344l-15-15.898437 15-14.699219v-105.5c0-8.402344 6.597656-15 15-15zm0 0" fill="#ff4b00" data-original="#FF4B00" class=""/><path d="m286 0h166v512h-166zm0 0" fill="#dd3400" data-original="#DD3400" class=""/><g fill="#53433f"><path d="m60 151.148438v-30.5625c-19.203125-2.957032-30-10.578126-30-13.585938s10.796875-10.628906 30-13.585938c4.636719-.714843 9.351562-1.414062 15-1.414062 29.03125 0 45 11.265625 45 15 0 8.289062 6.710938 15 15 15s15-6.710938 15-15c0-25.648438-32.242188-45-75-45-5.171875 0-10.171875.308594-15 .851562-35.066406 3.945313-60 21.601563-60 44.148438s24.933594 40.203125 60 44.148438zm0 0" data-original="#000000" class=""/><path d="m75 377c-5.171875 0-10.171875.308594-15 .851562-35.066406 3.945313-60 21.601563-60 44.148438s24.933594 40.203125 60 44.148438v-30.5625c-19.203125-2.957032-30-10.578126-30-13.585938s10.796875-10.628906 30-13.585938c4.636719-.714843 9.351562-1.414062 15-1.414062 29.03125 0 45 11.265625 45 15 0 8.289062 6.710938 15 15 15s15-6.710938 15-15c0-25.648438-32.242188-45-75-45zm0 0" data-original="#000000" class=""/><path d="m75 272c-5.171875 0-10.171875.308594-15 .851562-35.066406 3.945313-60 21.601563-60 44.148438s24.933594 40.203125 60 44.148438v-30.5625c-19.203125-2.957032-30-10.578126-30-13.585938s10.796875-10.628906 30-13.585938c4.636719-.714843 9.351562-1.414062 15-1.414062 29.03125 0 45 11.265625 45 15 0 8.289062 6.710938 15 15 15s15-6.710938 15-15c0-25.648438-32.242188-45-75-45zm0 0" data-original="#000000" class=""/><path d="m75 167c-5.171875 0-10.171875.308594-15 .851562-35.066406 3.945313-60 21.601563-60 44.148438s24.933594 40.203125 60 44.148438v-30.5625c-19.203125-2.957032-30-10.578126-30-13.585938s10.796875-10.628906 30-13.585938c4.636719-.714843 9.351562-1.414062 15-1.414062 29.03125 0 45 11.265625 45 15 0 8.289062 6.710938 15 15 15s15-6.710938 15-15c0-25.648438-32.242188-45-75-45zm0 0" data-original="#000000" class=""/></g><path d="m286 62c-57.898438 0-105 47.101562-105 105 0 20.398438 6 40.199219 16.800781 57.300781l75.601563 115.800781c2.699218 4.199219 7.5 6.898438 12.597656 6.898438s9.902344-2.703125 12.597656-6.898438l75.601563-115.800781c10.800781-17.101562 16.800781-36.902343 16.800781-57.300781 0-57.898438-47.101562-105-105-105zm0 150c-24.902344 0-45-20.097656-45-45s20.097656-45 45-45 45 20.097656 45 45-20.097656 45-45 45zm0 0" fill="#ffd400" data-original="#FFD400" class=""/><path d="m391 377c0 8.402344-6.597656 15-15 15h-180c-8.402344 0-15-6.597656-15-15s6.597656-15 15-15h180c8.402344 0 15 6.597656 15 15zm0 0" fill="#ff7816" data-original="#FF7816" class=""/><path d="m361 437c0 8.402344-6.597656 15-15 15h-120c-8.402344 0-15-6.597656-15-15s6.597656-15 15-15h120c8.402344 0 15 6.597656 15 15zm0 0" fill="#ff7816" data-original="#FF7816" class=""/><path d="m361 437c0 8.402344-6.597656 15-15 15h-60v-30h60c8.402344 0 15 6.597656 15 15zm0 0" fill="#ff4b00" data-original="#FF4B00" class=""/><path d="m391 377c0 8.402344-6.597656 15-15 15h-90v-30h90c8.402344 0 15 6.597656 15 15zm0 0" fill="#ff4b00" data-original="#FF4B00" class=""/><path d="m391 167c0 20.398438-6 40.199219-16.800781 57.300781l-75.601563 115.800781c-2.699218 4.199219-7.5 6.898438-12.597656 6.898438v-135c24.902344 0 45-20.097656 45-45s-20.097656-45-45-45v-60c57.898438 0 105 47.101562 105 105zm0 0" fill="#ff9f00" data-original="#FF9F00" class="active-path" style="fill:#FF9F00"/></g> </svg>
