<svg height="512pt" viewBox="0 0 512 512" width="512pt" xmlns="http://www.w3.org/2000/svg"><path d="m436 88.5v48.5c0 8.398438-6.597656 15-15 15h-270c-8.402344 0-15-6.601562-15-15v-48.5l88.5-88.5h123zm0 0" fill="#70da40"/><path d="m436 88.5v48.5c0 8.398438-6.597656 15-15 15h-135v-152h61.5zm0 0" fill="#56c225"/><path d="m286 60c-24.902344 0-45 21.097656-45 46 0 24.898438 20.097656 46 45 46s45-21.101562 45-46c0-24.902344-20.097656-46-45-46zm0 0" fill="#00b44b"/><path d="m331 106c0 24.898438-20.097656 46-45 46v-92c24.902344 0 45 21.097656 45 46zm0 0" fill="#00a03c"/><path d="m75 122c-41.351562 0-75 33.648438-75 75v45l30 77.5-30 72.5v45c0 41.351562 33.648438 75 75 75h61v-390zm0 0" fill="#53433f"/><path d="m512 197v240c0 41.398438-34.601562 75-76 75h-300c-41.398438 0-76-33.601562-76-75v-240c0-41.398438 34.601562-75 76-75h300c41.398438 0 76 33.601562 76 75zm0 0" fill="#725d57"/><path d="m512 197v240c0 41.398438-34.601562 75-76 75h-150v-390h150c41.398438 0 76 33.601562 76 75zm0 0" fill="#68544f"/><path d="m451 197c0 8.285156-6.714844 15-15 15s-15-6.714844-15-15 6.714844-15 15-15 15 6.714844 15 15zm0 0" fill="#3e322e"/><path d="m391 197c0 8.285156-6.714844 15-15 15s-15-6.714844-15-15 6.714844-15 15-15 15 6.714844 15 15zm0 0" fill="#3e322e"/><path d="m331 197c0 8.285156-6.714844 15-15 15s-15-6.714844-15-15 6.714844-15 15-15 15 6.714844 15 15zm0 0" fill="#3e322e"/><g fill="#53433f"><path d="m271 197c0 8.285156-6.714844 15-15 15s-15-6.714844-15-15 6.714844-15 15-15 15 6.714844 15 15zm0 0"/><path d="m211 197c0 8.285156-6.714844 15-15 15s-15-6.714844-15-15 6.714844-15 15-15 15 6.714844 15 15zm0 0"/><path d="m151 197c0 8.285156-6.714844 15-15 15s-15-6.714844-15-15 6.714844-15 15-15 15 6.714844 15 15zm0 0"/><path d="m151 437c0 8.285156-6.714844 15-15 15s-15-6.714844-15-15 6.714844-15 15-15 15 6.714844 15 15zm0 0"/><path d="m211 437c0 8.285156-6.714844 15-15 15s-15-6.714844-15-15 6.714844-15 15-15 15 6.714844 15 15zm0 0"/><path d="m271 437c0 8.285156-6.714844 15-15 15s-15-6.714844-15-15 6.714844-15 15-15 15 6.714844 15 15zm0 0"/></g><path d="m331 437c0 8.285156-6.714844 15-15 15s-15-6.714844-15-15 6.714844-15 15-15 15 6.714844 15 15zm0 0" fill="#3e322e"/><path d="m391 437c0 8.285156-6.714844 15-15 15s-15-6.714844-15-15 6.714844-15 15-15 15 6.714844 15 15zm0 0" fill="#3e322e"/><path d="m451 437c0 8.285156-6.714844 15-15 15s-15-6.714844-15-15 6.714844-15 15-15 15 6.714844 15 15zm0 0" fill="#3e322e"/><path d="m451 377c0 8.285156-6.714844 15-15 15s-15-6.714844-15-15 6.714844-15 15-15 15 6.714844 15 15zm0 0" fill="#3e322e"/><path d="m451 317c0 8.285156-6.714844 15-15 15s-15-6.714844-15-15 6.714844-15 15-15 15 6.714844 15 15zm0 0" fill="#3e322e"/><path d="m451 257c0 8.285156-6.714844 15-15 15s-15-6.714844-15-15 6.714844-15 15-15 15 6.714844 15 15zm0 0" fill="#3e322e"/><path d="m226 15c0-5.136719-.527344-10.152344-1.511719-15h-73.488281c-8.289062 0-15 6.710938-15 15v73.488281c4.847656.984375 9.863281 1.511719 15 1.511719 41.421875 0 75-33.578125 75-75zm0 0" fill="#00b44b"/><path d="m421 0h-73.488281c-.984375 4.847656-1.511719 9.863281-1.511719 15 0 41.421875 33.578125 75 75 75 5.136719 0 10.152344-.527344 15-1.511719v-73.488281c0-8.289062-6.710938-15-15-15zm0 0" fill="#00a03c"/><path d="m136 242h-136v150h136c24.8125 0 45-20.1875 45-45v-60c0-24.8125-20.1875-45-45-45zm0 0" fill="#ff9f00"/><path d="m121 317c0 8.285156-6.714844 15-15 15s-15-6.714844-15-15 6.714844-15 15-15 15 6.714844 15 15zm0 0" fill="#53433f"/></svg>