<?xml version="1.0" encoding="iso-8859-1"?>
<!-- Generator: Adobe Illustrator 16.0.2, SVG Export Plug-In . SVG Version: 6.00 Build 0)  -->
<!DOCTYPE svg PUBLIC "-//W3C//DTD SVG 1.1//EN" "http://www.w3.org/Graphics/SVG/1.1/DTD/svg11.dtd">
<svg version="1.1" id="co_x5F_basic" xmlns="http://www.w3.org/2000/svg" xmlns:xlink="http://www.w3.org/1999/xlink" x="0px"
	 y="0px" width="40px" height="40px" viewBox="0 0 40 40" style="enable-background:new 0 0 40 40;" xml:space="preserve">
<path style="fill-rule:evenodd;clip-rule:evenodd;" d="M30.008,25.977v5.398c0,3.635-2.965,6.6-6.598,6.6h-6.799
	c-3.635,0-6.6-2.965-6.6-6.6v-5.398H6.553c-0.848,0-1.539-0.691-1.539-1.54v-0.919c0-0.848,0.691-1.541,1.539-1.541h26.914
	c0.848,0,1.541,0.693,1.541,1.541v0.919c0,0.848-0.693,1.54-1.541,1.54H30.008L30.008,25.977z M20.977,12.025V4.546
	c0-1.411,1.123-2.564,2.533-2.564l0,0c1.41,0,2.502,1.154,2.502,2.564v9.575c1.695,1.451,2.859,3.565,2.984,5.857H11.025
	c0.123-2.263,1.293-4.385,2.951-5.832v-9.6c0-1.411,1.09-2.564,2.5-2.564h0.002c1.41,0,2.533,1.154,2.533,2.564v7.485
	C19.484,12.032,20.416,12.025,20.977,12.025z M22.873,15.42c-0.816,0-1.479,0.663-1.479,1.479s0.662,1.48,1.479,1.48
	s1.48-0.663,1.48-1.48S23.689,15.42,22.873,15.42L22.873,15.42z M17.012,15.42c-0.818,0-1.48,0.663-1.48,1.479s0.662,1.48,1.48,1.48
	c0.816,0,1.479-0.663,1.479-1.48S17.828,15.42,17.012,15.42z"/>
</svg>
