<?xml version='1.0' encoding='UTF-8'?>
<svg viewBox="-4 -4 32 32" xmlns="http://www.w3.org/2000/svg">
  <g id="Layer_1" transform="translate(-4, -4)">
    <g id="New">
      <g>
        <path d="M19, 4L7, 4C6.4, 4 6, 4.4 6, 5L6, 27C6, 27.6 6.4, 28 7, 28L25, 28C25.6, 28 26, 27.6 26, 27L26, 11L19, 4zM24, 26L8, 26L8, 6L18, 6L18, 11C18, 11.6 18.4, 12 19, 12L24, 12L24, 26z" fill="#727272" class="Black" />
      </g>
    </g>
  </g>
  <g id="Layer_1" transform="translate(-4, -4)">
    <g id="New">
      <g>
        <path d="M19, 4L7, 4C6.4, 4 6, 4.4 6, 5L6, 27C6, 27.6 6.4, 28 7, 28L25, 28C25.6, 28 26, 27.6 26, 27L26, 11L19, 4zM24, 26L8, 26L8, 6L18, 6L18, 11C18, 11.6 18.4, 12 19, 12L24, 12L24, 26z" fill="#727272" class="Black" />
      </g>
    </g>
  </g>
  <g id="Layer_1" transform="translate(-2, 4)">
    <g id="List_1_">
      <path d="M13, 16L3, 16C2.5, 16 2, 15.6 2, 15L2, 1C2, 0.4 2.5, 0 3, 0L13, 0C13.6, 0 14, 0.4 14, 1L14, 15C14, 15.6 13.6, 16 13, 16z" fill="#039C23" class="Green" />
    </g>
  </g>
  <g id="Layer_1" transform="translate(-2, 4)">
    <g id="List_1_">
      <rect x="4" y="2" width="8" height="12" rx="0" ry="0" fill="#FFFFFF" class="White" />
    </g>
  </g>
  <g id="Layer_1" transform="translate(-2, 4)">
    <g id="List_1_">
      <rect x="6" y="4" width="4" height="2" rx="0" ry="0" fill="#727272" class="Black" />
    </g>
  </g>
  <g id="Layer_1" transform="translate(-2, 4)">
    <g id="List_1_">
      <rect x="6" y="8" width="4" height="2" rx="0" ry="0" fill="#727272" class="Black" />
    </g>
  </g>
  <g id="Layer_1" transform="translate(8, 8)">
    <g id="Arrow1Right">
      <polygon points="0,6 0,10 8,10 8,16 16,8 8,0 8,6  " fill="#1177D7" class="Blue" />
    </g>
  </g>
</svg>